<?xml version="1.0" standalone="no"?>
<!DOCTYPE svg PUBLIC "-//W3C//DTD SVG 20010904//EN"
 "http://www.w3.org/TR/2001/REC-SVG-20010904/DTD/svg10.dtd">
<svg version="1.0" xmlns="http://www.w3.org/2000/svg"
 width="621.000000pt" height="801.000000pt" viewBox="0 0 621.000000 801.000000"
 preserveAspectRatio="xMidYMid meet">

<g transform="translate(0.000000,801.000000) scale(0.100000,-0.100000)"
fill="#000000" stroke="none">
<path d="M4420 7922 c0 -5 -14 -9 -32 -9 -18 0 -34 -5 -36 -11 -2 -7 -15 -12
-28 -12 -13 0 -24 -4 -24 -8 0 -5 -18 -17 -40 -28 -22 -10 -40 -22 -40 -26 0
-5 -5 -8 -10 -8 -6 0 -23 -11 -38 -25 -15 -14 -32 -25 -39 -25 -7 0 -13 -4
-13 -10 0 -5 -9 -10 -21 -10 -11 0 -27 -7 -35 -15 -9 -8 -26 -15 -40 -15 -13
0 -24 -4 -24 -10 0 -5 -9 -10 -20 -10 -11 0 -20 -4 -20 -10 0 -5 -11 -10 -25
-10 -16 0 -25 -6 -25 -15 0 -8 -4 -15 -9 -15 -4 0 -22 -13 -39 -30 -19 -18
-47 -32 -72 -36 -22 -4 -40 -10 -40 -15 0 -5 -11 -9 -25 -9 -14 0 -25 -4 -25
-10 0 -5 -9 -10 -20 -10 -11 0 -20 -4 -20 -10 0 -5 -11 -12 -25 -16 -14 -3
-25 -10 -25 -15 0 -5 -9 -9 -20 -9 -11 0 -20 -4 -20 -10 0 -5 -7 -10 -15 -10
-8 0 -15 -7 -15 -15 0 -9 -9 -15 -25 -15 -20 0 -25 5 -25 25 0 14 5 25 10 25
6 0 10 11 10 25 0 18 -5 25 -20 25 -11 0 -20 5 -20 10 0 6 -11 10 -25 10 -14
0 -25 -4 -25 -10 0 -5 -18 -10 -41 -10 -23 0 -47 -7 -55 -15 -9 -8 -26 -15
-40 -15 -13 0 -24 -4 -24 -10 0 -5 -25 -10 -55 -10 -30 0 -55 -4 -55 -10 0 -5
-24 -10 -52 -10 -29 -1 -89 -7 -133 -15 -44 -8 -95 -15 -112 -15 -18 0 -33 -4
-33 -10 0 -5 -20 -10 -45 -10 -25 0 -45 -4 -45 -10 0 -5 -18 -10 -40 -10 -42
0 -49 9 -25 34 8 8 15 19 15 25 0 6 -7 11 -15 11 -8 0 -15 5 -15 10 0 16 -247
13 -253 -2 -4 -10 -8 -9 -17 2 -9 11 -13 12 -17 3 -2 -7 -19 -13 -37 -13 -18
0 -41 -7 -52 -15 -10 -8 -31 -15 -46 -15 -15 0 -30 -4 -33 -10 -3 -5 -22 -10
-41 -10 -19 0 -34 -4 -34 -8 0 -4 -20 -14 -46 -21 -25 -7 -51 -20 -59 -27 -7
-8 -21 -14 -30 -14 -9 0 -27 -11 -41 -25 -14 -14 -29 -25 -34 -25 -19 0 -130
-120 -130 -140 0 -11 -7 -20 -15 -20 -9 0 -15 -9 -15 -25 0 -14 -4 -25 -10
-25 -6 0 -10 -40 -10 -101 0 -74 -4 -104 -14 -115 -8 -8 -17 -14 -21 -14 -4 0
-13 -6 -20 -12 -33 -30 -45 -38 -55 -38 -5 0 -10 -4 -10 -10 0 -5 -8 -10 -18
-10 -11 0 -27 -9 -37 -20 -10 -11 -27 -22 -38 -26 -11 -3 -31 -17 -44 -30 -13
-13 -28 -24 -34 -24 -6 0 -30 -20 -54 -44 -27 -28 -46 -40 -49 -33 -5 9 -7 9
-12 0 -3 -7 -12 -13 -20 -13 -8 0 -14 -7 -14 -15 0 -8 -5 -15 -11 -15 -6 0 -8
-8 -5 -18 4 -11 -2 -23 -15 -32 -12 -8 -32 -25 -45 -37 -13 -13 -28 -23 -34
-23 -5 0 -10 -10 -10 -23 0 -12 -9 -29 -20 -37 -11 -8 -20 -23 -20 -33 0 -10
-7 -25 -15 -33 -8 -9 -15 -31 -15 -50 0 -19 -4 -34 -10 -34 -15 0 -12 -97 3
-104 10 -5 10 -7 0 -12 -7 -3 -13 -14 -13 -25 0 -11 -11 -31 -25 -45 -14 -14
-25 -30 -25 -37 0 -7 -9 -19 -20 -27 -11 -8 -20 -25 -20 -37 0 -13 -5 -23 -11
-23 -17 0 -39 -27 -39 -49 0 -12 -4 -21 -10 -21 -5 0 -10 -8 -10 -19 0 -10
-11 -27 -25 -37 -14 -10 -25 -29 -25 -41 0 -16 -6 -23 -20 -23 -11 0 -20 -4
-20 -10 0 -5 -7 -10 -15 -10 -10 0 -15 -11 -15 -35 0 -19 -4 -35 -10 -35 -5 0
-10 -16 -10 -35 0 -19 -4 -35 -10 -35 -5 0 -10 -16 -10 -35 0 -23 -5 -35 -14
-35 -9 0 -14 -13 -14 -42 -1 -24 -6 -44 -11 -46 -6 -2 -11 -23 -11 -47 0 -24
-4 -47 -10 -50 -5 -3 -10 -26 -10 -51 0 -31 -4 -44 -14 -44 -10 0 -14 -17 -14
-67 0 -39 -5 -69 -11 -71 -14 -5 -15 -312 -1 -312 6 0 10 -12 10 -27 0 -29 39
-83 59 -83 6 0 11 -5 11 -11 0 -16 26 -39 45 -39 8 0 29 -14 46 -31 28 -29 30
-36 25 -78 -15 -113 -18 -347 -6 -413 7 -38 17 -68 22 -68 4 0 8 -16 8 -35 0
-19 4 -35 8 -35 9 0 42 -69 42 -87 0 -13 83 -5 88 8 5 13 72 11 72 -1 0 -5 20
-10 44 -10 25 0 48 -4 51 -10 3 -5 15 -10 25 -10 10 0 25 -7 34 -15 8 -8 19
-15 25 -15 6 0 11 -4 11 -10 0 -5 7 -10 16 -10 9 0 42 -27 75 -60 32 -33 66
-60 74 -60 8 0 15 -4 15 -10 0 -5 9 -10 19 -10 23 0 31 -19 31 -76 0 -24 5
-44 10 -44 6 0 10 -35 10 -85 0 -50 4 -85 10 -85 6 0 10 -36 10 -88 0 -48 4
-92 9 -97 8 -9 23 -135 23 -202 0 -13 4 -23 9 -23 5 0 9 -29 9 -65 0 -37 4
-65 10 -65 6 0 10 -28 10 -64 0 -36 4 -67 9 -70 4 -3 11 -33 14 -67 3 -34 10
-66 16 -72 6 -6 11 -26 11 -44 0 -18 5 -33 10 -33 6 0 10 -4 10 -9 0 -5 -14
-9 -30 -9 -17 1 -30 5 -30 10 0 4 -18 8 -40 8 -22 0 -40 -4 -40 -10 0 -5 -9
-10 -20 -10 -11 0 -20 -4 -20 -10 0 -5 12 -10 26 -10 18 0 42 -16 80 -55 30
-30 54 -59 54 -64 0 -26 36 -51 72 -51 21 0 38 -4 38 -10 0 -6 33 -10 80 -10
47 0 80 4 80 10 0 6 47 10 120 10 73 0 120 -4 120 -10 0 -5 9 -10 20 -10 21 0
31 -6 75 -47 13 -13 27 -23 30 -23 7 0 24 -14 60 -47 13 -13 29 -23 35 -23 5
0 10 -6 10 -13 0 -7 9 -19 20 -27 11 -8 20 -22 20 -31 0 -9 11 -25 25 -35 14
-10 25 -27 25 -37 0 -10 7 -25 15 -33 8 -9 15 -30 15 -49 0 -18 6 -35 13 -38
7 -2 8 -8 3 -13 -5 -5 -11 -4 -13 4 -3 6 -11 12 -19 12 -8 0 -14 5 -14 10 0 6
-9 10 -19 10 -14 0 -20 -9 -23 -37 -7 -58 4 -303 13 -303 5 0 9 -54 9 -120 0
-66 2 -120 5 -120 2 0 19 16 38 35 31 32 39 35 91 35 31 0 56 -4 56 -10 0 -5
4 -10 10 -10 5 0 8 17 7 37 -2 35 0 38 23 35 32 -3 100 -33 100 -44 0 -4 8 -8
18 -8 9 0 23 -9 30 -20 7 -11 21 -20 31 -20 10 0 24 -7 31 -15 7 -8 25 -15 40
-15 15 0 30 -6 33 -14 3 -7 21 -16 40 -20 19 -4 40 -13 47 -21 7 -8 21 -15 31
-15 11 0 19 -4 19 -9 0 -5 22 -14 49 -21 27 -6 58 -18 68 -25 10 -8 26 -15 36
-15 9 0 25 -4 35 -9 24 -12 80 -29 125 -37 20 -3 37 -10 37 -15 0 -5 20 -9 45
-9 25 0 45 -4 45 -8 0 -8 89 -30 160 -39 25 -2 49 -9 55 -14 5 -5 46 -9 91 -9
46 0 86 -5 89 -10 8 -14 462 -14 470 0 3 5 44 10 91 10 46 0 84 4 84 9 0 4 35
11 77 13 45 3 79 10 81 17 2 6 23 11 47 11 24 0 47 5 50 10 3 6 19 10 34 10
16 0 34 7 41 15 7 8 19 15 26 15 8 0 14 5 14 10 0 6 7 10 15 10 8 0 15 5 15
10 0 6 6 10 13 10 14 0 97 74 97 86 0 5 11 18 25 28 14 10 25 25 25 32 0 8 5
14 10 14 6 0 10 6 10 14 0 8 11 28 25 44 14 17 25 37 25 46 0 9 4 16 10 16 5
0 12 16 16 35 3 19 10 38 15 41 5 3 9 12 9 21 0 9 8 23 18 32 10 9 24 32 32
51 7 19 19 42 27 51 7 8 13 22 13 30 0 8 9 20 20 27 11 7 20 21 20 31 0 10 7
24 15 31 8 7 15 20 15 30 0 10 7 21 15 24 9 3 21 19 26 36 6 16 15 30 20 30 5
0 9 9 9 19 0 10 7 21 15 25 8 3 15 14 15 24 0 10 9 27 20 37 12 10 18 25 16
32 -3 7 -1 15 4 18 6 4 20 27 31 53 12 26 26 50 32 53 5 4 7 11 3 17 -3 5 1
15 9 22 8 7 15 21 15 31 0 11 5 19 10 19 6 0 10 6 10 14 0 8 7 22 16 30 8 9
13 20 10 25 -3 5 1 14 9 21 8 7 15 25 15 41 0 16 4 29 8 29 22 0 46 163 35
233 -9 57 -23 65 -35 20 -6 -23 -16 -35 -34 -39 -33 -8 -108 2 -112 15 -2 6
-12 11 -23 11 -11 0 -31 10 -44 22 -40 38 -54 48 -65 48 -5 0 -10 5 -10 10 0
6 -8 10 -18 10 -10 0 -27 7 -38 15 -26 19 -160 20 -194 0 -14 -8 -35 -14 -47
-15 -13 0 -23 -4 -23 -10 0 -6 -27 -10 -60 -10 -33 0 -60 -4 -60 -10 0 -5 -25
-10 -55 -10 -30 0 -55 2 -55 5 0 3 14 19 30 37 17 17 33 42 36 55 4 13 10 23
15 23 5 0 9 9 9 20 0 13 -7 20 -20 20 -11 0 -20 -4 -20 -10 0 -15 -56 -40 -90
-40 -16 0 -30 -4 -30 -10 0 -6 -27 -10 -60 -10 -33 0 -60 4 -60 10 0 6 -33 10
-80 10 -73 0 -80 -2 -80 -20 0 -11 4 -20 8 -20 5 0 15 -11 22 -25 7 -14 19
-25 27 -25 7 0 13 -4 13 -9 0 -5 15 -11 33 -15 25 -5 29 -9 17 -16 -18 -12
-400 -12 -400 -1 0 5 -51 11 -112 14 -65 3 -114 10 -116 16 -2 6 -30 11 -63
11 -33 0 -59 4 -59 10 0 15 -47 12 -53 -2 -4 -10 -6 -10 -6 0 -1 15 -131 17
-131 2 0 -5 -17 -10 -37 -10 -21 0 -47 -7 -57 -15 -11 -8 -28 -15 -38 -15 -10
0 -18 -4 -18 -10 0 -5 -11 -10 -25 -10 -14 0 -25 -4 -25 -9 0 -5 -8 -11 -17
-15 -10 -3 -31 -14 -48 -25 -16 -11 -40 -20 -52 -20 -13 -1 -23 -5 -23 -11 0
-5 -15 -10 -33 -10 -18 0 -42 -7 -54 -15 -18 -13 -56 -16 -187 -16 -168 0
-236 6 -236 22 0 5 -16 9 -35 9 -19 0 -35 5 -35 10 0 6 -16 10 -35 10 -19 0
-35 4 -35 10 0 5 -16 12 -35 16 -19 3 -35 10 -35 15 0 5 -11 9 -25 9 -14 0
-25 5 -25 10 0 6 -7 10 -16 10 -9 0 -25 11 -36 25 -11 14 -28 25 -39 25 -10 0
-19 5 -19 10 0 6 -8 10 -19 10 -10 0 -27 11 -37 25 -10 14 -27 25 -37 25 -10
0 -34 16 -53 35 -18 19 -38 35 -44 35 -11 0 -230 214 -230 225 0 6 -13 24 -48
60 -12 13 -22 29 -22 35 0 5 -3 10 -8 10 -4 0 -16 16 -26 35 -11 19 -23 35
-28 35 -4 0 -8 9 -8 21 0 11 -6 27 -12 34 -32 36 -38 46 -38 65 0 11 -4 20
-10 20 -5 0 -10 16 -10 35 0 19 -4 35 -10 35 -5 0 -10 11 -10 24 0 14 -7 31
-15 40 -8 8 -15 28 -15 45 0 17 -4 31 -10 31 -5 0 -10 20 -10 45 0 25 -4 45
-10 45 -5 0 -10 16 -10 35 0 19 -4 35 -9 35 -16 0 -20 45 -6 67 8 12 15 28 15
35 0 7 11 22 25 32 14 10 25 27 25 37 0 11 5 19 10 19 6 0 10 11 10 25 0 14 5
25 10 25 6 0 10 6 10 14 0 7 7 19 15 26 8 7 15 21 15 31 0 11 5 19 10 19 6 0
10 7 10 15 0 8 5 15 10 15 6 0 10 9 10 20 0 11 4 20 10 20 5 0 12 11 16 25 3
14 10 25 15 25 5 0 9 7 9 15 0 8 5 15 10 15 6 0 10 9 10 20 0 11 4 20 8 20 5
0 17 16 28 35 10 19 22 35 26 35 5 0 8 11 8 25 0 14 5 25 10 25 6 0 10 8 10
19 0 10 7 24 15 31 8 7 15 19 15 26 0 8 5 14 10 14 6 0 10 11 10 25 0 14 5 25
10 25 6 0 10 9 10 19 0 11 4 22 9 25 5 3 12 22 15 41 4 19 11 35 16 35 6 0 10
20 10 45 0 25 5 45 10 45 6 0 10 48 10 124 0 87 4 134 15 159 8 20 15 48 15
62 0 14 5 25 10 25 6 0 10 18 10 40 0 22 5 40 10 40 6 0 10 15 10 34 0 19 7
41 15 50 8 8 15 21 15 30 0 21 21 66 32 66 4 0 8 5 8 11 0 6 6 17 13 24 26 30
37 44 37 50 0 8 97 105 105 105 4 0 13 6 20 13 33 29 45 37 55 37 5 0 10 5 10
10 0 6 7 10 15 10 9 0 28 11 43 25 15 14 37 25 49 25 13 0 23 5 23 10 0 6 11
10 25 10 14 0 25 4 25 9 0 5 20 12 45 15 25 4 45 11 45 17 0 5 20 9 45 9 25 0
45 3 45 8 0 16 160 36 308 40 85 1 218 -2 295 -9 78 -6 168 -13 200 -16 31 -3
57 -9 57 -14 0 -5 34 -9 75 -9 43 0 75 -4 75 -10 0 -5 24 -10 53 -10 28 0 115
-7 192 -15 77 -8 193 -15 258 -15 71 0 117 -4 117 -10 0 -5 25 -10 55 -10 30
0 55 5 55 10 0 6 18 10 40 10 22 0 40 -4 40 -10 0 -6 26 -10 58 -10 51 0 139
-24 158 -43 4 -4 17 -7 30 -7 12 0 24 -3 26 -7 2 -5 21 -17 42 -28 71 -36 76
-40 76 -52 0 -7 5 -13 10 -13 6 0 10 -7 10 -16 0 -18 23 -44 39 -44 6 0 11
-11 11 -25 0 -14 5 -25 10 -25 6 0 10 -9 10 -20 0 -11 4 -20 9 -20 5 0 12 -11
15 -25 4 -14 11 -25 16 -25 6 0 10 -11 10 -25 0 -14 5 -25 10 -25 6 0 10 -9
10 -19 0 -11 5 -23 10 -26 6 -3 10 -17 10 -30 0 -13 7 -30 15 -39 8 -8 15 -28
15 -45 0 -17 5 -31 10 -31 6 0 10 -15 10 -34 0 -19 3 -36 8 -38 9 -4 42 -134
42 -165 0 -13 5 -23 10 -23 6 0 10 -24 10 -54 0 -30 5 -58 10 -61 6 -3 10 -39
10 -80 0 -84 15 -108 25 -40 4 25 11 45 16 45 5 0 9 34 9 75 0 41 -4 75 -9 75
-7 0 -19 117 -21 200 -1 36 13 100 21 100 5 0 9 18 9 39 0 22 5 43 10 46 6 3
10 21 10 38 0 18 7 41 15 51 8 11 15 30 15 43 0 13 5 23 10 23 6 0 10 16 10
35 0 19 5 35 10 35 6 0 10 9 10 20 0 11 4 20 10 20 5 0 13 18 16 40 4 22 10
40 15 40 5 0 9 9 9 20 0 11 5 20 10 20 6 0 10 11 10 25 0 14 4 25 10 25 5 0
12 11 16 25 3 14 10 25 15 25 5 0 9 9 9 20 0 11 5 20 10 20 6 0 10 11 10 25 0
14 4 25 9 25 5 0 12 11 15 25 4 14 11 25 16 25 6 0 10 9 10 20 0 11 5 20 10
20 6 0 10 11 10 25 0 14 4 25 9 25 5 0 12 11 15 25 4 14 11 25 16 25 6 0 10 9
10 20 0 11 5 20 10 20 6 0 10 16 10 35 0 19 4 35 9 35 5 0 12 11 15 25 4 14
11 25 16 25 6 0 10 16 10 35 0 19 5 35 10 35 6 0 10 17 10 38 0 21 5 43 11 49
17 17 -3 243 -22 243 -5 0 -9 16 -9 35 0 24 -5 35 -15 35 -9 0 -15 9 -15 23 0
12 -9 29 -20 37 -11 8 -20 21 -20 30 0 8 -12 26 -25 39 -14 13 -25 30 -25 38
0 17 -24 43 -39 43 -6 0 -11 5 -11 10 0 6 -9 10 -20 10 -11 0 -20 7 -20 15 0
8 -5 15 -11 15 -6 0 -17 6 -25 14 -16 17 -19 36 -4 36 6 0 33 23 60 50 38 38
50 58 50 80 0 17 -4 30 -10 30 -5 0 -12 11 -16 25 -3 14 -10 25 -15 25 -5 0
-9 9 -9 20 0 11 -4 20 -10 20 -5 0 -20 11 -34 25 -38 38 -116 29 -116 -14 0
-6 -11 -11 -25 -11 -14 0 -25 5 -25 11 0 7 -8 19 -18 28 -10 9 -26 35 -36 59
-11 23 -23 42 -28 42 -4 0 -8 7 -8 15 0 8 -4 15 -10 15 -5 0 -10 7 -10 15 0
22 -147 165 -170 165 -11 0 -20 7 -20 15 0 9 -9 15 -25 15 -14 0 -25 5 -25 10
0 6 -9 10 -20 10 -11 0 -20 5 -20 10 0 6 -16 10 -35 10 -24 0 -35 5 -35 15 0
12 -13 15 -60 15 -33 0 -60 4 -60 10 0 6 -30 10 -70 10 -40 0 -70 -4 -70 -10
0 -6 -27 -10 -61 -10 -52 0 -60 3 -58 18 3 20 -21 72 -33 72 -4 0 -8 9 -8 21
0 22 -22 49 -39 49 -6 0 -11 3 -11 8 0 15 -48 62 -64 62 -19 0 -46 23 -46 39
0 6 -11 11 -25 11 -14 0 -25 5 -25 10 0 6 -16 10 -35 10 -19 0 -35 5 -35 10 0
6 -4 10 -10 10 -5 0 -10 -4 -10 -8z m-1900 -582 c0 -5 -4 -10 -10 -10 -5 0
-10 5 -10 10 0 6 5 10 10 10 6 0 10 -4 10 -10z m2710 -4720 c0 -5 -9 -10 -20
-10 -11 0 -20 -4 -20 -10 0 -5 -9 -10 -21 -10 -11 0 -27 -7 -35 -15 -9 -8 -31
-15 -50 -15 -19 0 -34 -4 -34 -10 0 -5 -20 -10 -44 -10 -35 0 -46 -4 -51 -19
-3 -11 -15 -23 -26 -26 -10 -4 -19 -15 -19 -26 0 -11 -7 -19 -17 -19 -10 0
-27 -7 -37 -15 -11 -8 -35 -15 -53 -15 -18 0 -33 -5 -33 -10 0 -17 -320 -6
-420 14 -47 10 -111 20 -142 23 -32 3 -58 9 -58 14 0 5 -18 9 -40 9 -22 0 -40
4 -40 8 0 8 -77 29 -142 39 -21 3 -38 9 -38 14 0 5 -11 9 -25 9 -14 0 -25 6
-25 13 0 7 -9 19 -20 27 -11 8 -20 18 -20 22 0 4 56 8 125 8 77 0 125 -4 125
-10 0 -6 59 -10 158 -10 87 0 162 -4 168 -9 5 -5 122 -13 261 -17 221 -6 256
-5 292 10 23 9 59 16 81 16 22 0 40 5 40 10 0 6 27 10 60 10 33 0 60 4 60 10
0 6 14 10 30 10 17 0 30 -4 30 -10z m94 -25 c14 -13 26 -31 26 -39 0 -8 5 -16
11 -18 15 -5 13 -222 -1 -226 -5 -2 -10 -19 -10 -38 0 -19 -4 -34 -10 -34 -5
0 -12 -15 -15 -34 -4 -19 -15 -43 -26 -55 -10 -11 -19 -25 -19 -30 0 -6 -34
-44 -75 -86 -49 -50 -84 -77 -105 -81 -16 -4 -30 -10 -30 -15 0 -14 -26 -10
-59 9 -19 10 -31 25 -31 38 0 11 -5 25 -12 32 -17 17 -103 15 -122 -3 -12 -12
-46 -15 -175 -15 -101 0 -161 -4 -161 -10 0 -5 -11 -10 -25 -10 -15 0 -36 -11
-49 -25 -13 -14 -28 -25 -35 -25 -6 0 -11 -4 -11 -10 0 -5 -9 -10 -19 -10 -11
0 -26 -7 -35 -15 -11 -11 -38 -15 -101 -15 -63 0 -90 4 -101 15 -9 8 -26 15
-40 15 -13 0 -24 5 -24 10 0 6 -16 10 -35 10 -19 0 -35 5 -35 11 0 17 -27 39
-47 39 -10 0 -25 9 -33 20 -8 11 -19 20 -26 20 -6 0 -30 23 -54 50 -24 28 -49
50 -57 50 -7 0 -13 11 -13 25 0 14 -4 25 -10 25 -5 0 -10 9 -10 20 0 11 -4 20
-10 20 -5 0 -12 11 -16 25 -3 14 -10 25 -15 25 -5 0 -9 20 -9 45 0 25 -4 45
-10 45 -6 0 -10 27 -10 60 0 33 4 60 10 60 6 0 10 16 10 35 0 19 4 35 8 35 5
0 19 10 31 21 18 17 25 19 31 9 4 -7 15 -10 23 -7 9 3 22 -4 33 -19 11 -13 29
-24 41 -24 13 0 23 -4 23 -9 0 -5 16 -12 35 -15 19 -4 35 -11 35 -16 0 -6 16
-10 35 -10 19 0 35 -4 35 -10 0 -5 13 -10 29 -10 16 0 34 -7 41 -15 7 -9 29
-15 51 -15 22 0 39 -4 39 -10 0 -5 20 -10 45 -10 25 0 45 -4 45 -9 0 -4 36
-11 80 -14 44 -4 89 -11 100 -17 28 -15 460 -8 523 9 26 7 47 17 47 22 0 5 9
9 20 9 11 0 20 4 20 8 0 4 16 14 35 21 19 7 35 19 35 27 0 8 7 14 15 14 8 0
15 6 15 13 0 6 5 4 11 -5 10 -18 8 -22 -28 -63 -7 -7 -13 -18 -13 -24 0 -6 -7
-11 -15 -11 -8 0 -20 -10 -26 -22 -7 -13 -27 -37 -46 -55 -18 -18 -33 -39 -33
-48 0 -8 -4 -15 -10 -15 -5 0 -20 -11 -34 -25 -14 -14 -30 -25 -36 -25 -5 0
-10 -6 -10 -14 0 -8 -7 -16 -15 -20 -8 -3 -20 -17 -27 -31 -6 -14 -19 -25 -30
-25 -10 0 -18 -7 -18 -15 0 -9 -9 -15 -25 -15 -14 0 -25 -4 -25 -10 0 -5 23
-10 50 -10 28 0 50 5 50 10 0 6 11 10 25 10 27 0 70 23 96 52 9 10 20 18 23
18 11 0 36 27 36 39 0 6 5 11 11 11 12 0 39 25 39 37 0 5 9 15 20 23 11 8 20
20 20 28 0 7 11 23 25 36 14 13 25 33 25 44 0 11 6 23 13 25 9 4 8 8 -3 17
-11 9 -12 13 -2 17 6 2 12 22 12 43 0 36 26 101 43 108 4 2 7 15 7 28 0 30 10
30 44 -1z"/>
<path d="M3455 4188 c-88 -5 -161 -13 -163 -19 -2 -5 -24 -9 -48 -9 -24 0 -44
-4 -44 -9 0 -5 -15 -11 -32 -14 -27 -4 -90 -24 -107 -34 -2 -1 4 -9 12 -18 10
-9 34 -15 66 -15 39 0 51 -4 51 -15 0 -9 -9 -15 -25 -15 -18 0 -25 -5 -25 -20
0 -11 -4 -20 -10 -20 -5 0 -10 5 -10 10 0 6 -16 10 -35 10 -24 0 -35 -5 -35
-15 0 -8 -9 -15 -20 -15 -22 0 -27 -15 -7 -24 10 -5 10 -7 0 -12 -7 -3 -13
-12 -13 -20 0 -8 -7 -17 -15 -20 -8 -4 -15 -12 -15 -20 0 -8 -4 -14 -8 -14
-11 0 -32 -61 -32 -92 0 -15 -5 -28 -11 -30 -7 -2 -10 -11 -7 -18 6 -17 38 39
38 65 0 9 9 25 20 37 l20 22 0 -27 c0 -15 -4 -27 -10 -27 -6 0 -10 -42 -10
-105 0 -68 4 -105 11 -105 6 0 17 -6 24 -12 33 -30 45 -38 55 -38 5 0 10 -4
10 -10 0 -5 9 -10 20 -10 11 0 20 -4 20 -10 0 -5 11 -12 25 -16 14 -3 25 -10
25 -15 0 -5 9 -9 20 -9 11 0 20 -4 20 -10 0 -5 11 -10 25 -10 14 0 25 -4 25
-10 0 -14 73 -12 107 2 15 7 35 21 44 30 9 10 20 18 25 18 5 0 21 11 36 25 15
14 30 25 33 25 3 0 17 11 31 25 40 40 50 32 45 -37 -3 -32 18 -38 26 -8 3 11
9 20 13 20 4 0 10 12 13 28 4 15 12 53 18 85 10 46 10 69 0 110 -6 29 -14 64
-18 80 -3 15 -9 27 -14 27 -5 0 -9 6 -9 13 0 21 -109 127 -130 127 -5 0 -10 7
-10 15 0 18 91 24 198 12 69 -7 102 -22 102 -46 0 -6 3 -11 8 -11 9 0 62 -45
62 -54 0 -4 11 -18 25 -32 14 -14 25 -31 25 -39 0 -8 5 -15 10 -15 6 0 10 -9
10 -20 0 -11 4 -20 8 -20 10 0 42 -88 42 -117 0 -13 5 -23 10 -23 6 0 10 -7
10 -15 0 -28 17 -15 28 23 17 57 22 101 13 106 -5 3 -12 26 -15 51 -4 25 -11
45 -17 45 -5 0 -9 9 -9 20 0 11 -4 20 -10 20 -5 0 -10 11 -10 25 0 23 4 25 44
25 24 0 46 -4 48 -10 4 -12 194 -17 205 -5 5 4 2 10 -4 12 -7 3 -13 11 -13 19
0 8 -7 14 -15 14 -8 0 -15 5 -15 10 0 6 -16 10 -35 10 -19 0 -35 5 -35 10 0 6
24 10 53 10 41 0 57 5 70 20 15 17 15 23 4 34 -7 7 -23 17 -35 20 -12 4 -22
12 -22 17 0 5 -11 9 -25 9 -14 0 -25 5 -25 10 0 6 -13 10 -29 10 -16 0 -31 4
-33 10 -3 9 -328 31 -428 28 -30 0 -127 -5 -215 -10z m-251 -273 c8 -8 19 -15
25 -15 6 0 11 -11 11 -24 0 -13 6 -27 13 -30 10 -5 10 -7 0 -12 -7 -3 -13 -12
-13 -20 0 -23 -38 -54 -67 -54 -72 1 -98 83 -45 140 30 33 53 38 76 15z m-174
-24 c0 -6 -4 -13 -10 -16 -5 -3 -10 1 -10 9 0 9 5 16 10 16 6 0 10 -4 10 -9z"/>
<path d="M5150 4170 c-8 -5 -34 -10 -57 -10 -24 0 -43 -4 -43 -10 0 -5 -10
-10 -23 -10 -13 0 -32 -7 -43 -15 -10 -8 -25 -15 -32 -15 -18 0 -58 -42 -66
-68 -4 -13 -16 -22 -27 -22 -10 0 -19 -4 -19 -9 0 -5 -11 -12 -25 -15 -14 -4
-25 -11 -25 -16 0 -6 -8 -10 -17 -10 -23 0 -53 -95 -53 -162 0 -27 -5 -49 -12
-52 -10 -5 -10 -7 0 -12 7 -3 12 -25 12 -55 0 -27 5 -49 10 -49 6 0 10 -14 10
-30 0 -18 6 -33 15 -36 8 -4 15 -19 15 -34 0 -20 6 -31 20 -35 11 -3 20 -11
20 -16 0 -5 7 -9 15 -9 8 0 15 -4 15 -10 0 -5 9 -10 20 -10 11 0 20 -4 20 -9
0 -5 11 -12 25 -15 14 -4 25 -11 25 -16 0 -6 20 -10 45 -10 38 0 45 3 45 20 0
13 9 22 25 26 14 3 25 10 25 15 0 5 5 9 10 9 6 0 22 10 35 23 13 12 31 27 39
34 8 7 21 22 29 33 13 18 18 19 41 9 18 -9 25 -18 21 -31 -3 -10 -8 -28 -11
-40 -4 -13 -12 -26 -18 -30 -6 -4 -7 -10 -4 -14 11 -10 38 22 38 45 0 11 7 26
15 35 8 8 15 24 15 35 0 12 5 21 10 21 6 0 10 38 10 95 0 57 -4 95 -10 95 -5
0 -10 11 -10 24 0 26 -30 86 -42 86 -5 0 -8 5 -8 10 0 14 -46 60 -60 60 -5 0
-10 4 -10 10 0 5 -11 12 -25 16 -14 3 -25 10 -25 15 0 5 11 9 25 9 14 0 25 5
25 10 0 6 33 10 80 10 47 0 80 -4 80 -10 0 -5 8 -10 19 -10 19 0 101 -73 101
-90 0 -5 4 -10 8 -10 5 0 17 -20 28 -45 10 -25 22 -45 26 -45 4 0 8 -8 8 -19
0 -16 45 -129 55 -140 2 -2 11 4 20 12 17 18 22 147 5 147 -5 0 -10 7 -10 15
0 8 -4 15 -10 15 -5 0 -10 7 -10 16 0 9 -16 31 -35 50 -55 52 -44 74 36 74
l39 0 0 55 c0 30 -4 55 -10 55 -5 0 -10 5 -10 11 0 20 -29 39 -59 39 -17 0
-31 5 -31 10 0 13 -320 13 -340 0z m-245 -290 c3 -11 11 -20 16 -20 5 0 9 -16
9 -36 0 -35 -18 -64 -39 -64 -6 0 -11 -4 -11 -10 0 -16 -29 -12 -50 8 -28 26
-32 122 -5 122 8 0 15 5 15 10 0 6 13 10 29 10 21 0 32 -6 36 -20z"/>
<path d="M3450 3400 c0 -5 5 -10 10 -10 6 0 10 5 10 10 0 6 -4 10 -10 10 -5 0
-10 -4 -10 -10z"/>
<path d="M5025 3400 c-3 -5 -1 -10 4 -10 6 0 11 5 11 10 0 6 -2 10 -4 10 -3 0
-8 -4 -11 -10z"/>
<path d="M5120 3400 c0 -5 5 -10 10 -10 6 0 10 5 10 10 0 6 -4 10 -10 10 -5 0
-10 -4 -10 -10z"/>
<path d="M2472 935 c0 -81 3 -147 9 -150 5 -4 9 53 9 144 0 83 -4 151 -8 151
-5 0 -9 -65 -10 -145z"/>
<path d="M2778 864 c-2 -42 0 -78 5 -81 4 -2 7 32 7 76 0 45 -2 81 -4 81 -3 0
-6 -34 -8 -76z"/>
<path d="M1750 645 c0 -57 -4 -95 -10 -95 -5 0 -10 -11 -10 -25 0 -14 -4 -25
-10 -25 -5 0 -10 -6 -10 -14 0 -17 -54 -76 -69 -76 -6 0 -11 -4 -11 -9 0 -5
-18 -12 -40 -16 -22 -4 -40 -11 -40 -16 0 -5 -15 -9 -33 -9 -18 0 -38 -5 -43
-10 -6 -6 -59 -12 -119 -15 -120 -6 -154 -15 -57 -15 48 0 62 -3 62 -15 0 -10
11 -15 35 -15 19 0 35 5 35 10 0 6 11 10 25 10 14 0 42 7 62 15 19 8 44 15 54
15 11 0 19 5 19 10 0 6 9 10 21 10 11 0 27 6 34 13 30 26 44 37 50 37 8 0 55
47 55 55 0 10 28 35 38 35 6 0 13 6 16 13 5 10 7 10 12 0 3 -7 12 -13 20 -13
8 0 14 -4 14 -10 0 -5 9 -10 19 -10 10 0 21 -7 25 -15 3 -9 18 -15 36 -15 16
0 30 -4 30 -10 0 -6 47 -10 120 -10 66 0 120 4 120 9 0 5 17 12 38 16 56 10
112 29 112 37 0 5 5 8 11 8 11 0 39 25 39 35 0 3 11 17 25 31 14 14 25 36 25
49 0 14 5 25 10 25 6 0 10 20 10 45 0 25 -4 45 -10 45 -5 0 -10 -9 -10 -20 0
-21 -16 -55 -37 -78 -7 -7 -13 -17 -13 -22 0 -5 -9 -11 -19 -15 -11 -3 -23
-15 -26 -26 -4 -10 -15 -19 -25 -19 -10 0 -20 -7 -24 -15 -3 -8 -15 -15 -26
-15 -11 0 -20 -4 -20 -10 0 -5 -16 -10 -35 -10 -19 0 -35 -4 -35 -10 0 -6 -48
-10 -125 -10 -77 0 -125 4 -125 10 0 6 -11 10 -25 10 -14 0 -25 5 -25 10 0 6
-8 10 -18 10 -18 0 -52 32 -52 49 0 5 -3 11 -7 13 -12 5 -43 100 -43 131 0 15
-4 27 -10 27 -6 0 -10 -38 -10 -95z"/>
<path d="M2750 700 c0 -16 5 -30 10 -30 6 0 10 14 10 30 0 17 -4 30 -10 30 -5
0 -10 -13 -10 -30z"/>
<path d="M2730 623 c0 -13 5 -23 10 -23 13 0 13 11 0 30 -8 12 -10 11 -10 -7z"/>
<path d="M448 559 c-2 -6 -42 -11 -101 -12 -70 -2 -97 -5 -97 -14 0 -7 9 -13
19 -13 11 0 23 -4 26 -10 7 -11 89 -13 159 -4 48 7 59 23 32 50 -17 17 -33 18
-38 3z"/>
<path d="M2706 548 c-5 -16 -12 -28 -17 -28 -5 0 -9 -9 -9 -20 0 -11 -4 -20
-8 -20 -5 0 -17 -16 -28 -35 -10 -19 -22 -35 -26 -35 -5 0 -8 -5 -8 -10 0 -6
-11 -22 -25 -36 -14 -14 -25 -29 -25 -35 0 -19 -47 -57 -78 -64 -18 -3 -32
-11 -32 -16 0 -5 -116 -9 -280 -9 -160 0 -280 -4 -280 -9 0 -5 -21 -11 -47
-14 -27 -3 -77 -12 -113 -22 -36 -9 -76 -19 -90 -22 -14 -3 -28 -11 -32 -17
-6 -8 -11 -6 -18 4 -6 10 -13 11 -17 5 -15 -20 -59 -32 -110 -31 -50 2 -51 2
-31 -16 12 -10 29 -18 40 -18 10 0 18 -4 18 -10 0 -5 7 -10 15 -10 8 0 15 5
15 10 0 6 19 10 43 10 23 0 67 7 97 15 30 8 70 15 88 15 17 0 32 4 32 9 0 6
128 10 308 11 187 0 308 4 310 10 2 6 16 10 32 10 21 0 45 16 94 64 36 35 66
72 66 83 0 10 9 25 20 33 11 8 20 25 20 37 0 13 5 23 11 23 17 0 39 27 39 49
0 12 5 21 10 21 6 0 10 9 10 19 0 11 5 21 11 23 6 2 9 15 7 28 l-4 25 -8 -27z"/>
<path d="M1080 455 c0 -14 -6 -25 -13 -25 -8 0 -20 -11 -27 -25 -7 -14 -19
-25 -27 -25 -7 0 -13 -4 -13 -10 0 -5 6 -10 14 -10 8 0 18 5 21 10 3 6 13 10
21 10 29 0 52 33 47 68 -6 38 -23 43 -23 7z"/>
<path d="M940 350 c0 -5 11 -10 25 -10 14 0 25 5 25 10 0 6 -11 10 -25 10 -14
0 -25 -4 -25 -10z"/>
</g>
</svg>
