<?xml version="1.0" encoding="UTF-8"?>
<svg id="Layer_2" data-name="Layer 2" xmlns="http://www.w3.org/2000/svg" viewBox="0 0 185.38 72.85">
  <defs>
    <style>
      .cls-1 {
        fill: #fff;
      }

      .cls-2 {
        fill: #1c1d1a;
      }
    </style>
  </defs>
  <g id="Layer_1-2" data-name="Layer 1">
    <path class="cls-1" d="m21.25,71.13c-1.91,0-3.76-.88-4.96-2.45L2.32,50.37c-1.5-1.96-2.32-4.4-2.32-6.86V14.58c0-3.2,2.42-5.88,5.6-6.2l7.59-.77c.21-.02.42-.03.63-.03.78,0,1.54.15,2.26.42.32-.32.67-.6,1.06-.85l8.05-5.11c1.02-.65,2.18-.97,3.34-.97,1.03,0,2.07.26,3,.77,1.99,1.1,3.23,3.19,3.23,5.46v55.58c0,2.8-1.87,5.26-4.57,6.01l-7.28,2.01c-.55.15-1.11.23-1.66.23Z"/>
    <path class="cls-2" d="m6.24,14.58l7.59-.77v25.8c0,1.24.39,2.45,1.11,3.46l5.55,7.74V12.41l8.05-5.11v55.58l-7.28,2.01-13.98-18.3c-.67-.88-1.04-1.96-1.04-3.07V14.58Z"/>
    <path class="cls-1" d="m33.04,68.6c-1.31,0-2.6-.41-3.68-1.2-1.6-1.17-2.55-3.04-2.55-5.03V6.24c0-2.13,1.08-4.1,2.87-5.25,1.02-.65,2.19-.98,3.36-.98.89,0,1.78.19,2.61.57l6.77,3.12c.92-1.16,2.24-2,3.78-2.28L53.39.1c.37-.07.74-.1,1.12-.1,1.45,0,2.87.51,4,1.45,1.42,1.19,2.24,2.94,2.24,4.79v27.06c0,1.76-.43,3.52-1.24,5.08l-6.23,12c-1.13,2.18-3.37,3.54-5.83,3.54-.44,0-.88-.04-1.31-.13v6.4c0,2.72-1.76,5.12-4.35,5.94l-6.87,2.18c-.62.2-1.25.29-1.89.29Z"/>
    <path class="cls-2" d="m33.04,6.24l6.87,3.16v19.07l7.41-.76V7.54l7.19-1.31v27.06c0,.77-.18,1.52-.54,2.2l-6.23,12c-.16.31-.64.2-.63-.16l.1-12.44-7.3,1.2v24.09l-6.87,2.18V6.24Z"/>
    <g>
      <path class="cls-1" d="m65.08,72.85c-12.15,0-21.31-8.75-21.31-20.36s9.16-20.36,21.31-20.36c7.14,0,13.21,2.78,17.09,7.84,1.87,2.44,1.54,5.91-.75,7.96l-5.11,4.56,5.11,4.56c2.29,2.05,2.62,5.52.75,7.96-3.88,5.06-9.94,7.84-17.09,7.84Zm.04-19.35s.16.04.43.04.65,0,1.44-1.01c.01-.01.02-.03.03-.04-.01-.01-.02-.03-.03-.04-.79-1.01-1.18-1.01-1.44-1.01-.34,0-.47.07-.47.07,0,.03-.15.35-.15.98s.13.93.18,1.01c0,0,0,0,0,0Z"/>
      <path class="cls-1" d="m90.76,72.62c-10.52,0-18.46-7.36-18.46-17.11s7.94-17.07,18.46-17.07,18.46,7.18,18.46,17.07-7.94,17.11-18.46,17.11Z"/>
      <path class="cls-1" d="m112.56,72.62c-8.19,0-13.91-5.18-13.91-12.6,0-1.57.33-5.07,2.94-7.95l-1.33-2.75c-1.3-2.7-.37-5.95,2.18-7.54,3.35-2.1,8.16-3.35,12.85-3.35,11.01,0,17.59,6.09,17.59,16.28v11.63c0,3.24-2.63,5.87-5.87,5.87h-8.31c-.57,0-1.12-.08-1.64-.23-1.28.39-2.77.63-4.49.63Z"/>
      <path class="cls-2" d="m49.65,52.5c0-8.51,6.53-14.48,15.43-14.48,5.42,0,9.7,1.98,12.43,5.54l-5.9,5.26c-1.62-2.06-3.56-3.24-6.05-3.24-3.88,0-6.49,2.69-6.49,6.92s2.61,6.93,6.49,6.93c2.49,0,4.43-1.19,6.05-3.25l5.9,5.26c-2.73,3.56-7,5.54-12.43,5.54-8.9,0-15.43-5.98-15.43-14.48Z"/>
      <path class="cls-1" d="m142.91,72.62c-10.81,0-18.66-7.2-18.66-17.11s7.85-17.07,18.66-17.07c7.71,0,13.91,3.95,16.18,10.31.9,2.52-.03,5.29-2.16,6.78,2.13,1.49,3.06,4.26,2.16,6.78-2.27,6.36-8.47,10.31-16.18,10.31Z"/>
      <path class="cls-2" d="m78.18,55.5c0-6.57,5.26-11.2,12.58-11.2s12.58,4.63,12.58,11.2-5.22,11.24-12.58,11.24-12.58-4.67-12.58-11.24Zm16.11,0c0-2.81-1.54-4.23-3.52-4.23s-3.52,1.42-3.52,4.23,1.54,4.27,3.52,4.27,3.52-1.46,3.52-4.27Z"/>
      <path class="cls-1" d="m170.56,72.22c-1.1,0-2.13-.3-3.01-.83-.88.53-1.91.83-3.01.83h-8.94c-3.24,0-5.87-2.63-5.87-5.87v-29.36c0-3.24,2.63-5.87,5.87-5.87h8.94c3.24,0,5.87,2.63,5.87,5.87v1.45c.07,0,.15,0,.22,0,8.82,0,14.74,6.26,14.74,15.57v12.35c0,3.24-2.63,5.87-5.87,5.87h-8.94Z"/>
      <path class="cls-2" d="m127,54.71v11.63h-8.31v-2.85c-1.03,2.18-3.09,3.24-6.13,3.24-5.3,0-8.03-3.01-8.03-6.73,0-4.19,3.17-6.53,9.89-6.53h3.6c-.28-1.66-1.54-2.53-4.08-2.53-1.94,0-4.12.63-5.54,1.7l-2.85-5.9c2.53-1.58,6.37-2.45,9.73-2.45,7.44,0,11.71,3.21,11.71,10.41Zm-8.94,4.59v-1.5h-2.22c-1.9,0-2.73.63-2.73,1.82,0,.99.79,1.74,2.14,1.74,1.23,0,2.33-.63,2.81-2.06Z"/>
      <path class="cls-2" d="m130.12,55.5c0-6.57,5.3-11.2,12.78-11.2,5.26,0,9.22,2.41,10.64,6.41l-6.92,3.4c-.91-2.02-2.22-2.85-3.76-2.85-2.02,0-3.68,1.42-3.68,4.23s1.66,4.27,3.68,4.27c1.54,0,2.85-.83,3.76-2.85l6.92,3.4c-1.42,4-5.38,6.41-10.64,6.41-7.48,0-12.78-4.63-12.78-11.24Z"/>
      <path class="cls-2" d="m179.51,54v12.35h-8.94v-10.8c0-2.69-1.03-3.72-2.65-3.72-1.82,0-3.36,1.15-3.36,4.35v10.17h-8.94v-29.36h8.94v9.46c1.66-1.42,3.76-2.14,6.09-2.14,4.99,0,8.86,2.89,8.86,9.69Z"/>
      <path class="cls-1" d="m62.36,50.51c-.85,1.47-1.55,3.3-.97,4.99.27.79.69,1.56,1.34,2.09,1.07.87,2.64,1.43,3.95.67.96-.56,1.46-1.86,1.64-2.91.16-.92.21-1.85-.02-2.76-.31-1.2-1.21-2.22-2.41-2.55-1.39-.38-2.78.21-3.55,1.4-.6.92-.37,2.27.39,3.03.67.67,1.5,1.24,2.41,1.5,1.22.35,2.61.04,3.48-.9.71-.77,1.02-1.84,1.2-2.86s.25-2.05-.12-3.02c-.44-1.15-1.18-2.09-2.34-2.58s-2.42-.36-3.56.21c-.88.44-1.59,1.24-2.12,2.06s-.83,1.83-.88,2.82c-.12,2.36,1.92,4.76,4.37,4.6.67-.04,1.28-.25,1.77-.73.43-.43.76-1.15.73-1.77-.06-1.28-1.1-2.59-2.5-2.5-.1,0-.19,0-.3,0l.66.09c-.13-.02-.25-.05-.38-.09l.6.25c-.15-.07-.29-.15-.43-.24l.51.39c-.13-.11-.25-.22-.35-.36l.39.51c-.1-.14-.19-.28-.26-.44l.25.6c-.07-.16-.11-.33-.14-.5l.09.66c-.03-.24-.03-.46,0-.7l-.09.66c.05-.28.12-.53.23-.79l-.25.6c.13-.29.3-.56.49-.82l-.39.51c.17-.22.36-.41.57-.59l-.51.39c.19-.14.38-.26.6-.35l-.6.25c.14-.05.28-.09.43-.12l-.66.09c.11-.01.22-.01.33,0l-.66-.09c.15.02.28.05.42.11l-.6-.25c.12.06.24.13.34.21l-.51-.39c.1.09.2.19.28.3l-.39-.51c.1.14.19.29.26.45l-.25-.6c.08.2.13.4.16.61l-.09-.66c.03.32.02.63-.02.95l.09-.66c-.09.55-.21,1.13-.43,1.65l.25-.6c-.03.07-.07.14-.12.2l.39-.51c-.04.06-.09.11-.15.16l.51-.39c-.08.06-.15.1-.24.14l.6-.25c-.06.02-.11.04-.17.05l.66-.09c-.1.01-.18.01-.28,0l.66.09c-.17-.03-.33-.07-.48-.14l.6.25c-.24-.11-.45-.25-.66-.41l.51.39c-.14-.11-.28-.23-.41-.36l.39,3.03.05-.07-.39.51s.07-.08.12-.11l-.51.39.07-.04-.6.25c.05-.02.1-.04.16-.05l-.66.09c.09-.01.16-.01.25,0l-.66-.09c.06,0,.11.02.17.04l-.6-.25c.08.04.15.07.22.13l-.51-.39c.05.05.1.1.14.16l-.39-.51c.06.09.11.18.15.28l-.25-.6c.05.14.08.28.11.42l-.09-.66c.05.37.04.73,0,1.09l.09-.66c-.06.38-.15.74-.29,1.09l.25-.6c-.07.15-.14.3-.22.45l2.16-1.24c-.1,0-.2,0-.3-.01l.66.09c-.1-.02-.19-.04-.28-.08l.6.25c-.12-.05-.23-.12-.34-.19l.51.39c-.13-.11-.25-.22-.36-.35l.39.51c-.1-.14-.19-.28-.27-.44l.25.6c-.08-.19-.14-.38-.17-.59l.09.66c-.02-.24-.01-.48.02-.72l-.09.66c.06-.33.15-.64.28-.95l-.25.6c.15-.35.33-.68.52-1.01.65-1.13.3-2.79-.9-3.42s-2.72-.31-3.42.9h0Z"/>
    </g>
  </g>
</svg>